<?xml version="1.0" encoding="UTF-8"?>
<svg width="44px" height="44px" viewBox="0 0 44 44" version="1.1" xmlns="http://www.w3.org/2000/svg" xmlns:xlink="http://www.w3.org/1999/xlink">
    <title>icon_excel文件2</title>
    <g id="页面-1" stroke="none" stroke-width="1" fill="none" fill-rule="evenodd">
        <g id="数据上传（已上传）" transform="translate(-334.000000, -700.000000)">
            <g id="编组-4备份-3" transform="translate(318.000000, 688.000000)">
                <g id="illustration_google-sheets" transform="translate(16.000000, 12.000000)">
                    <rect id="矩形" fill-opacity="0" fill="#D8D8D8" x="1" y="0" width="43.0222222" height="43.0222222"></rect>
                    <g id="编组-11" transform="translate(6.000000, 4.000000)">
                        <path d="M18.003,1.13686838e-13 L31,12.603 L31,32.6799998 C31,35.06587 29.06587,37 26.6799998,37 L4.32000017,37 C1.93412996,37 2.92184832e-16,35.06587 0,32.6799998 L0,4.32000017 C-2.92184832e-16,1.93412996 1.93412996,1.15901472e-13 4.32000017,1.13686838e-13 L18.003,1.13686838e-13 Z" id="Combined-Shape" fill="#7CCFA8"></path>
                        <path d="M18.014,0 L31,12.877 L31,12.9066667 L23.76,12.9066667 C20.5788398,12.9066667 18,10.3278268 18,7.14666667 L18,0 L18.014,0 Z" id="Combined-Shape" fill="#4FA476" fill-rule="nonzero"></path>
                        <rect id="Rectangle-5" stroke="#39A472" x="4.5" y="18.5" width="22" height="14" rx="2.4000001"></rect>
                        <rect id="矩形" fill="#39A472" x="4" y="23" width="23" height="1"></rect>
                        <rect id="矩形备份" fill="#39A472" x="4" y="28" width="23" height="1"></rect>
                        <rect id="矩形备份" fill="#39A472" transform="translate(11.500000, 25.000000) rotate(-90.000000) translate(-11.500000, -25.000000) " x="4.5" y="24.5" width="14" height="1"></rect>
                        <rect id="矩形备份-2" fill="#39A472" transform="translate(19.500000, 25.000000) rotate(-90.000000) translate(-19.500000, -25.000000) " x="12.5" y="24.5" width="14" height="1"></rect>
                    </g>
                </g>
            </g>
        </g>
    </g>
</svg>