<?xml version="1.0" encoding="UTF-8"?>
<svg width="140px" height="98px" viewBox="0 0 140 98" version="1.1" xmlns="http://www.w3.org/2000/svg" xmlns:xlink="http://www.w3.org/1999/xlink">
    <title>icon_upload</title>
    <g id="页面-1" stroke="none" stroke-width="1" fill="none" fill-rule="evenodd">
        <g id="数据上传（已上传）" transform="translate(-650.000000, -315.000000)" fill="#3A86EF" fill-rule="nonzero">
            <g id="编组-4" transform="translate(320.000000, 176.000000)">
                <g id="编组-10" transform="translate(316.000000, 139.000000)">
                    <path d="M87.4929435,0 C100.617944,0 112.578629,5.3230216 121.258064,13.9597122 C128.984879,21.7151079 134.100807,32.0791368 135.123992,43.5712231 C139.922379,45.157554 144.191533,48.2244605 147.402217,52.0316548 C151.530242,56.8964029 154,63.2064748 154,70.0100719 C154,77.7654678 150.859879,84.745324 145.814516,89.8215824 L145.779234,89.8215824 C141.368951,94.2633097 135.441533,97.1539567 128.84375,97.8942443 C128.661645,97.9107852 115.62175,97.9331469 89.7240648,97.9613294 L89.722,75.563 L98.4445487,75.5630258 C99.3470467,75.5630258 100.223022,75.257824 100.930128,74.6970166 C102.660983,73.3242693 102.951287,70.8083023 101.578539,69.077447 L86.8562651,50.5145794 C86.6656989,50.2743002 86.4481323,50.0567337 86.2078532,49.8661675 C84.4769979,48.4934202 81.9610309,48.7837241 80.5882836,50.5145794 L65.8660093,69.077447 C65.3052018,69.7845521 65,70.6605278 65,71.5630258 C65,73.7721648 66.790861,75.5630258 69,75.5630258 L76.722,75.563 L76.7245413,97.9748843 C68.7890357,97.982846 59.9473875,97.9912179 50.1995967,98 C40.2147177,98 31.1471774,93.9812951 24.5846774,87.3187049 C18.0574596,80.7971225 14,71.7374105 14,61.7611511 C14,52.2079137 17.7399194,43.3949642 23.8790323,36.9086331 C29.3125,31.2330937 36.6512098,27.2848921 44.8366935,25.9805755 C48.6471774,18.5776979 54.2923387,12.4086332 61.172379,7.89640294 C68.7227823,2.89064744 77.7550402,0 87.4929435,0 Z" id="icon_upload_选中"></path>
                </g>
            </g>
        </g>
    </g>
</svg>